<?xml version="1.0" encoding="UTF-8" standalone="no"?>
<!-- Created with Inkscape (http://www.inkscape.org/) -->

<svg
   width="167.14203mm"
   height="188.56949mm"
   viewBox="0 0 167.14203 188.56949"
   version="1.1"
   id="svg1"
   xmlns="http://www.w3.org/2000/svg"
   xmlns:svg="http://www.w3.org/2000/svg">
  <defs
     id="defs1" />
  <g
     id="layer1"
     transform="translate(-18.511742,-58.700429)">
    <path
       style="fill:#000000;stroke-width:0.264583"
       d="m 97.671087,246.80689 c -0.29639,-0.25466 -3.60302,-4.74927 -7.34809,-9.98802 -3.7451,-5.23875 -7.27848,-10.16153 -7.85199,-10.93951 -0.57351,-0.77798 -1.06312,-1.55338 -1.08802,-1.7231 -0.0249,-0.16973 -1.38308,-2.18504 -3.01813,-4.47848 -1.635042,-2.29345 -3.32528,-4.49461 -3.756022,-4.89149 -0.430768,-0.39687 -3.504353,-4.53159 -6.830192,-9.18825 -3.325839,-4.65667 -7.15944,-10.01448 -8.519133,-11.90625 l -2.472161,-3.43959 -4.249261,0.0794 c -2.766801,0.0517 -4.112789,0.16563 -3.858101,0.32668 0.215106,0.13603 0.262122,0.24915 0.104483,0.25138 -0.157638,0.002 -0.342212,-0.0515 -0.410157,-0.11947 -0.06795,-0.0679 -3.927554,-0.15763 -8.576918,-0.19931 -7.453524,-0.0668 -8.553529,-0.13045 -9.300131,-0.53794 -0.465719,-0.25418 -1.22809,-0.46214 -1.69418,-0.46214 -0.466063,0 -1.617927,-0.36406 -2.559684,-0.80902 -1.094714,-0.51722 -2.277957,-1.37997 -3.280569,-2.39198 -1.001104,-1.01047 -2.007235,-2.41637 -2.781988,-3.88734 l -1.213723,-2.30437 -0.209444,-3.83646 c -0.115173,-2.11005 -0.217647,-18.9374 -0.227674,-37.3941 l -0.01826,-33.55764 0.699268,-2.02882 c 0.384598,-1.11585 1.053465,-2.70546 1.486349,-3.532467 0.432885,-0.827008 1.17094,-1.89857 1.6401,-2.38125 0.469159,-0.482682 1.424781,-1.291608 2.123572,-1.797613 0.698817,-0.506008 1.938046,-1.279914 2.753863,-1.719792 l 1.483307,-0.79978 17.073562,0.08091 17.073589,0.08091 16.524815,-17.074213 c 9.08868,-9.390795 16.84605,-17.207219 17.23864,-17.369837 0.39259,-0.162616 1.07564,-0.216194 1.51789,-0.11906 0.44222,0.09713 1.10495,0.534172 1.47267,0.971201 0.38875,0.461991 0.668633,1.125635 0.668633,1.585444 0,0.434964 -0.13801,1.050906 -0.306653,1.368761 -0.16865,0.317854 -3.53378,3.911669 -7.47803,7.986252 -3.94428,4.074583 -11.27747,11.689071 -16.295978,16.921082 -5.01851,5.232014 -13.700495,14.280762 -19.293284,20.108332 -5.592789,5.82757 -12.777337,13.30426 -15.965672,16.61486 -3.188309,3.31059 -5.688409,6.01927 -5.5558,6.01927 0.132635,0 4.400153,-2.12291 9.483381,-4.71758 5.083227,-2.59467 12.695052,-6.48089 16.915156,-8.63605 4.220104,-2.15515 16.984717,-8.60474 28.365817,-14.33242 15.343613,-7.721844 20.929843,-10.413953 21.609403,-10.413953 0.59417,0 1.19591,0.235138 1.71106,0.66861 0.43704,0.367736 0.87111,1.017 0.96464,1.442807 0.10671,0.485804 0.0122,1.107101 -0.25405,1.667888 -0.38796,0.817603 -1.39761,1.38139 -11.85839,6.621858 -6.288883,3.1505 -16.613533,8.35927 -22.943693,11.57504 -6.330152,3.21578 -15.497964,7.87648 -20.372912,10.35712 -4.874948,2.48064 -11.268763,5.75084 -14.208469,7.26712 -4.122129,2.12616 -5.30897,2.85052 -5.187791,3.16628 0.136578,0.35592 0.731414,0.38837 4.551151,0.24831 2.41673,-0.0886 8.501724,-0.27943 13.522192,-0.42403 5.020469,-0.1446 12.164219,-0.38261 15.875,-0.52892 3.710779,-0.1463 8.630419,-0.29396 10.932559,-0.32811 l 4.18571,-0.0621 0.80504,0.89743 c 0.69435,0.77402 0.78547,1.04334 0.66271,1.9586 -0.0864,0.64398 -0.40752,1.32634 -0.81683,1.73567 -0.64574,0.64574 -0.8524,0.68284 -4.84841,0.87043 -2.29565,0.10777 -7.626716,0.32238 -11.846821,0.47691 -4.220104,0.15454 -11.780572,0.39987 -16.801041,0.54519 -5.020469,0.14532 -10.467578,0.33514 -12.104687,0.42183 -2.895415,0.1533 -2.976563,0.1744 -2.976563,0.77395 0,0.50708 0.26969,0.71859 1.521354,1.19307 0.836745,0.3172 4.021667,1.46871 7.077604,2.55892 3.055938,1.09021 8.235157,2.91396 11.509375,4.05277 3.274219,1.13882 14.505252,5.0548 24.957879,8.70219 10.45263,3.6474 19.115273,6.69992 19.250323,6.78338 0.13507,0.0835 0.43384,0.51586 0.66397,0.96087 0.27175,0.52553 0.36068,1.11684 0.25371,1.68707 -0.0964,0.51364 -0.49877,1.15905 -0.96978,1.55536 -0.45072,0.37927 -1.13617,0.67741 -1.55742,0.67741 -0.4138,0 -1.7441,-0.34926 -2.95626,-0.77612 -1.212143,-0.42686 -6.847323,-2.38427 -12.522633,-4.34978 -5.67531,-1.96552 -13.77156,-4.78086 -17.991664,-6.25631 -4.220104,-1.47545 -11.959166,-4.17464 -17.197916,-5.99822 -5.23875,-1.82357 -10.684087,-3.71066 -12.100719,-4.19353 -1.416658,-0.48287 -2.632948,-0.78535 -2.702904,-0.67217 -0.06996,0.11317 2.577412,2.24723 5.88301,4.74234 3.305599,2.49512 8.450977,6.38975 11.434154,8.65473 2.983177,2.26499 9.353021,7.0685 14.155208,10.67448 4.802188,3.60597 15.866371,11.88849 24.587091,18.4056 8.720703,6.5171 16.757413,12.51112 17.859383,13.32003 1.10193,0.80892 2.12259,1.65733 2.26811,1.88537 0.14552,0.22804 0.34822,0.69986 0.45046,1.0485 0.10834,0.36956 0.0296,1.00792 -0.18892,1.53088 -0.25865,0.61902 -0.6822,1.02543 -1.3667,1.31144 -0.73684,0.30786 -1.20301,0.34967 -1.81269,0.16255 -0.4514,-0.13854 -8.13535,-5.7138 -17.075413,-12.38946 -8.94006,-6.67566 -21.552935,-16.12362 -28.028612,-20.99548 -6.475677,-4.87186 -15.376816,-11.56595 -19.780276,-14.87575 -4.403487,-3.30982 -8.153956,-6.10742 -8.334375,-6.2169 -0.180446,-0.10949 -0.02117,0.21164 0.353959,0.71363 0.375127,0.50199 1.914419,2.63911 3.420639,4.74916 1.506247,2.11006 4.999752,6.99162 7.763325,10.84792 2.763599,3.8563 6.871811,9.5713 9.129369,12.7 2.25753,3.1287 5.476001,7.59354 7.152137,9.92188 1.676109,2.32833 4.290509,5.95974 5.809773,8.06979 1.519264,2.11005 3.091736,4.19364 3.494379,4.63021 0.402669,0.43656 1.935402,2.46062 3.406112,4.49791 1.47074,2.03729 3.8259,5.31151 5.23372,7.27604 1.40783,1.96454 3.12076,4.31831 3.80651,5.23062 l 1.24685,1.65875 0.5325,-1.52645 c 0.29287,-0.83955 1.56506,-4.44349 2.82707,-8.00875 1.26201,-3.56526 2.40586,-6.83948 2.54191,-7.27604 0.13602,-0.43656 0.4554,-1.04089 0.70974,-1.34294 0.25432,-0.30205 0.78269,-0.75906 1.1742,-1.01557 0.47657,-0.31227 0.95578,-0.41063 1.45013,-0.29767 0.40611,0.0928 1.01287,0.39566 1.34839,0.67302 0.33552,0.27738 0.670353,0.89659 0.744043,1.37603 0.0946,0.61496 -0.14357,1.57254 -0.808463,3.25114 -0.51838,1.30869 -0.94248,2.46607 -0.94248,2.57195 0,0.10588 -0.96856,2.90467 -2.15233,6.21953 -1.18377,3.31486 -2.54471,7.14921 -3.02432,8.52078 l -0.87199,2.49378 3.06748,4.2531 c 1.68709,2.3392 3.82196,5.27882 4.744113,6.53247 1.40729,1.91323 1.67664,2.45134 1.67664,3.34992 0,0.87062 -0.15203,1.19847 -0.81407,1.75552 -0.56425,0.47479 -1.123583,0.68498 -1.822773,0.68498 -0.57901,0 -1.23828,-0.19724 -1.54757,-0.46302 z M 44.711528,184.68496 c 0.232489,-0.20721 0.54774,-0.2696 0.745304,-0.1475 0.188331,0.11639 1.197637,0.2299 2.242926,0.25224 1.04529,0.0224 2.669143,0.11619 3.608599,0.20853 l 1.708097,0.16791 -0.415051,-0.63344 c -0.228257,-0.34838 -3.919088,-5.51433 -8.201846,-11.47988 -4.282731,-5.96555 -9.313783,-12.95981 -11.180101,-15.54281 -1.866317,-2.58299 -3.537664,-4.69635 -3.714141,-4.69635 -0.176451,0 -0.480139,-0.29766 -0.674846,-0.66146 -0.300355,-0.56125 -0.542026,-0.66146 -1.595279,-0.66146 -0.682704,0 -1.793663,0.0757 -2.468827,0.16826 -0.970386,0.13301 -1.227561,0.27352 -1.227561,0.67077 0,0.27638 -0.188833,0.79074 -0.419682,1.14302 -0.238945,0.36471 -0.330094,0.78544 -0.211666,0.97707 0.114405,0.18511 0.213968,5.40102 0.221244,11.59091 l 0.01323,11.25434 0.926042,1.82972 c 0.509323,1.00635 1.404726,2.32694 1.989799,2.93463 0.585073,0.60769 1.472221,1.31612 1.971437,1.57428 0.499216,0.25816 1.060503,0.6222 1.247298,0.80899 0.18677,0.18678 1.264153,0.41534 2.394189,0.50791 1.130008,0.0926 2.352225,0.19218 2.716027,0.22139 0.363802,0.0292 2.745052,0.0123 5.291666,-0.0374 3.42019,-0.0669 4.735513,-0.18437 5.033116,-0.44964 z M 28.311092,128.80203 c 0.503952,-0.47332 1.124611,-0.92783 1.379273,-1.01002 0.254661,-0.0822 0.464846,-0.40929 0.467095,-0.72691 0.0026,-0.32517 0.08898,-0.45481 0.198438,-0.29672 0.116072,0.16765 1.580118,-1.16594 3.633946,-3.31015 1.891771,-1.975 7.444528,-7.75834 12.339478,-12.85187 4.894924,-5.09353 9.558126,-9.97381 10.362671,-10.845064 0.804545,-0.871251 1.433962,-1.61304 1.398667,-1.648415 -0.0353,-0.03538 -6.090285,-0.0857 -13.455544,-0.111831 -8.962152,-0.0318 -13.506053,0.04371 -13.738093,0.228277 -0.190711,0.151683 -0.785098,0.416917 -1.320879,0.58941 -0.535755,0.172492 -1.428723,0.656749 -1.984375,1.076124 -0.555625,0.419379 -1.188852,0.930709 -1.407133,1.136299 -0.218282,0.2056 -0.600949,0.6262 -0.850398,0.93468 -0.249449,0.30848 -0.686805,1.01813 -0.97192,1.57699 -0.285115,0.55886 -0.695352,1.72335 -0.911648,2.58774 -0.298292,1.19203 -0.402511,3.45688 -0.431509,9.37684 -0.02117,4.29286 -0.02884,8.1624 -0.01746,8.59896 0.01138,0.43656 0.05718,1.80578 0.101574,3.04271 0.0444,1.23692 0.100991,2.35086 0.125783,2.47541 0.02487,0.12455 0.972237,0.18408 2.105395,0.13229 1.900079,-0.0868 2.131563,-0.16109 2.976562,-0.95475 z m 117.011238,85.73533 c -0.32245,-0.0606 -0.8636,-0.4398 -1.20256,-0.84262 -0.60703,-0.7214 -0.621,-0.87897 -0.93154,-10.49996 -0.17338,-5.37217 -0.49591,-11.49398 -0.71668,-13.60403 -0.22077,-2.11006 -0.58737,-4.78896 -0.81468,-5.95313 -0.2273,-1.16417 -0.76761,-3.18007 -1.20068,-4.47979 -0.43304,-1.29972 -1.32717,-3.43178 -1.98694,-4.73791 -0.65976,-1.30614 -1.8066,-3.27882 -2.54852,-4.38375 -0.74194,-1.10493 -2.21088,-3.021 -3.26435,-4.25792 -1.05343,-1.23693 -3.05649,-3.3774 -4.45119,-4.75659 -1.81374,-1.79359 -2.58037,-2.74502 -2.69221,-3.3413 -0.0984,-0.5246 0,-1.13694 0.26662,-1.65171 0.23267,-0.44993 0.65209,-0.94065 0.93207,-1.09048 0.27996,-0.14983 0.93202,-0.27243 1.44899,-0.27243 0.79399,0 1.27953,0.30271 3.12624,1.94911 1.20248,1.07201 3.1831,3.09223 4.40142,4.48938 1.2183,1.39715 2.76006,3.28826 3.42609,4.20246 0.66604,0.9142 1.79996,2.61082 2.51982,3.77027 0.71987,1.15945 1.77138,3.114 2.33669,4.34346 0.56533,1.22946 1.26309,2.95189 1.55059,3.82762 0.28747,0.87574 0.76004,2.59161 1.05013,3.81305 0.29009,1.22145 0.70432,3.61053 0.92054,5.30909 0.21619,1.69855 0.51387,4.62361 0.66151,6.50013 0.14766,1.87653 0.27429,3.5434 0.28139,3.70417 0.007,0.16077 0.30215,-0.45937 0.65566,-1.3781 0.35348,-0.91872 1.37147,-3.77622 2.26216,-6.35 0.89069,-2.57377 3.82392,-10.93037 6.51825,-18.57022 2.69436,-7.63984 5.84552,-16.68859 7.00259,-20.10833 1.15708,-3.41974 2.12577,-6.30792 2.15265,-6.41817 0.0269,-0.11025 -1.16096,-0.60978 -2.63967,-1.11007 -1.47873,-0.50028 -3.78557,-1.46055 -5.12635,-2.13394 -1.3408,-0.67338 -3.1075,-1.65974 -3.92605,-2.19191 -0.81851,-0.53217 -2.32164,-1.64388 -3.34028,-2.47047 -1.01865,-0.82659 -2.58085,-2.25773 -3.47157,-3.18031 -0.89072,-0.92258 -2.19147,-2.3918 -2.89055,-3.26492 -0.69908,-0.87313 -2.00136,-2.7186 -2.89391,-4.10105 -0.89257,-1.38244 -2.22498,-3.5851 -2.96095,-4.89479 -0.73596,-1.30969 -1.83787,-3.37584 -2.44866,-4.59144 -0.61079,-1.2156 -1.14679,-2.1681 -1.19111,-2.11667 -0.0443,0.0514 -0.70728,1.81993 -1.47322,3.92999 -0.76594,2.11005 -2.26034,6.27724 -3.32087,9.26041 -1.06053,2.98318 -2.8983,8.10287 -4.08395,11.37709 -1.18565,3.27422 -3.03411,8.45343 -4.1077,11.50937 -1.07363,3.05594 -2.80739,7.9375 -3.85284,10.84792 -1.04545,2.91042 -2.43038,6.77995 -3.07766,8.59896 -0.64725,1.81901 -1.7059,4.83398 -2.35252,6.69992 -0.64661,1.86595 -1.45584,3.94954 -1.79826,4.63021 -0.34243,0.68067 -1.19933,2.95313 -1.90421,5.04991 -0.95602,2.8438 -1.49344,4.03692 -2.11537,4.69635 -0.70403,0.74652 -1.01798,0.88403 -2.01824,0.88403 -0.81153,0 -1.32242,-0.15237 -1.62243,-0.48386 -0.28826,-0.31855 -0.43786,-0.94996 -0.43786,-1.8482 0,-1.06139 0.62249,-3.11299 2.80348,-9.23958 1.54191,-4.33138 3.19259,-8.9468 3.66821,-10.25649 0.47558,-1.30969 1.40747,-3.86953 2.07084,-5.68854 0.66336,-1.81901 2.75375,-7.65308 4.64529,-12.96459 1.89156,-5.31151 5.24115,-14.65791 7.44355,-20.76979 2.20241,-6.11187 4.71212,-13.15124 5.57712,-15.64303 0.86503,-2.49179 1.57276,-4.61632 1.57276,-4.72118 0,-0.10486 -0.62507,-0.10657 -1.38906,-0.004 -0.76398,0.10277 -2.34156,0.48497 -3.50573,0.84932 -1.16416,0.36435 -3.23241,1.18301 -4.59607,1.81924 -1.36367,0.63622 -3.45451,1.80561 -4.64635,2.59863 -1.19184,0.79302 -3.0243,2.2356 -4.07213,3.20573 -1.04782,0.97013 -2.68004,2.79324 -3.62712,4.05136 -0.94707,1.25811 -2.30356,3.41858 -3.01439,4.80103 -0.71086,1.38244 -1.5679,3.40651 -1.90453,4.49791 -0.44246,1.43446 -0.61444,2.64427 -0.62055,4.36563 -0.008,2.14387 0.0767,2.56099 0.84561,4.1844 0.54051,1.14122 1.37139,2.30674 2.26332,3.175 0.77513,0.75451 2.10069,1.72903 2.94571,2.1656 0.845,0.43656 1.76126,1.0777 2.03613,1.42474 0.27485,0.34705 0.49975,1.03948 0.49975,1.53875 0,0.49927 -0.12261,1.13682 -0.27244,1.41679 -0.14984,0.27997 -0.62016,0.68886 -1.04519,0.90865 -0.42502,0.21978 -1.04658,0.39803 -1.38123,0.39611 -0.33464,-0.002 -1.4968,-0.4961 -2.58254,-1.09816 -1.23677,-0.6858 -2.72479,-1.84566 -3.98399,-3.10536 -1.41036,-1.41091 -2.29587,-2.58261 -2.9686,-3.92797 -0.52726,-1.05451 -1.162823,-2.83492 -1.412353,-3.95647 -0.38478,-1.72951 -0.4123,-2.46293 -0.18116,-4.82959 0.16142,-1.65302 0.56153,-3.65318 0.981613,-4.90708 0.38999,-1.16416 1.12318,-2.98103 1.6293,-4.03747 0.5061,-1.05645 1.76099,-3.17818 2.7886,-4.71496 1.09882,-1.64324 2.91965,-3.85535 4.42058,-5.37052 1.4037,-1.417 3.51467,-3.24836 4.69106,-4.06969 1.17637,-0.82133 3.02184,-1.96822 4.10105,-2.54866 1.07918,-0.58043 2.87631,-1.42015 3.99362,-1.86603 1.11728,-0.44588 3.20087,-1.13218 4.6302,-1.5251 2.23288,-0.61383 3.12026,-0.7161 6.30294,-0.72641 3.24379,-0.0105 3.81497,0.0538 4.59578,0.51718 0.75652,0.44898 1.328,1.41577 3.77161,6.38064 1.58398,3.21832 3.635,7.10864 4.55782,8.64516 0.92284,1.53653 2.38077,3.77693 3.23987,4.97866 0.85908,1.20174 2.57805,3.20501 3.8199,4.45172 1.24185,1.2467 3.32544,2.9956 4.63021,3.88644 1.30476,0.89085 3.20574,2.03801 4.22439,2.54927 1.01864,0.51125 2.90338,1.30043 4.18827,1.75372 1.2849,0.4533 2.54797,0.82418 2.80684,0.82418 0.37552,0 0.88571,-1.1899 2.52412,-5.88698 1.12943,-3.23784 3.76846,-10.76854 5.86457,-16.7349 3.03567,-8.64078 3.95422,-10.97493 4.51466,-11.47218 0.57844,-0.51324 0.90864,-0.60115 1.85653,-0.49431 0.6341,0.0715 1.38391,0.33897 1.66619,0.59444 0.28228,0.25547 0.58748,0.86011 0.67818,1.34364 0.11311,0.60284 -0.0431,1.48535 -0.49715,2.80795 -0.36415,1.06084 -2.82774,8.06052 -5.47466,15.55484 -2.64691,7.49432 -5.68502,16.18588 -6.75137,19.31458 -1.06635,3.1287 -2.89277,8.42698 -4.05871,11.77396 -1.16596,3.34698 -3.18767,9.12151 -4.49267,12.83229 -1.30504,3.71079 -3.40707,9.66391 -4.67122,13.22917 -1.26416,3.56526 -3.58812,10.23276 -5.16438,14.81667 -1.57625,4.5839 -3.53184,10.23937 -4.34578,12.56771 -0.81394,2.32833 -1.6111,4.48811 -1.77152,4.79952 -0.16039,0.3114 -0.54641,0.69087 -0.8578,0.84327 -0.31142,0.15239 -0.80431,0.3264 -1.09535,0.3867 -0.29104,0.0603 -0.79301,0.06 -1.11546,-5.3e-4 z M 139.04737,99.226992 c -0.71774,-0.196956 -2.07635,-0.749631 -3.01914,-1.228164 -1.00134,-0.508252 -2.44464,-1.587286 -3.47077,-2.594804 -1.13226,-1.111697 -2.10193,-2.391716 -2.72804,-3.601217 -0.53428,-1.032063 -1.15338,-2.575126 -1.37581,-3.429026 -0.22241,-0.853901 -0.40296,-2.569329 -0.40124,-3.812064 0.003,-1.242732 0.17597,-2.908961 0.38722,-3.702727 0.21124,-0.793766 0.76512,-2.222516 1.23084,-3.175 0.57949,-1.185127 1.48037,-2.360991 2.85395,-3.725066 1.17086,-1.162786 2.67883,-2.345084 3.61926,-2.837654 0.88668,-0.464409 2.37496,-1.024188 3.3073,-1.243959 0.93234,-0.219768 2.49298,-0.401339 3.46808,-0.40349 0.97512,-0.0021 2.40387,0.126699 3.175,0.28633 0.77115,0.159634 2.29507,0.711724 3.38648,1.226864 1.51196,0.713648 2.45724,1.416151 3.97065,2.950906 1.31818,1.336752 2.27185,2.59746 2.8352,3.748066 0.46685,0.953583 1.02978,2.501395 1.25092,3.439584 0.22114,0.938188 0.40381,2.543987 0.40598,3.568438 0.003,1.024453 -0.17868,2.563574 -0.4018,3.420271 -0.22315,0.856697 -0.76909,2.318994 -1.21319,3.249549 -0.47948,1.00466 -1.51019,2.436826 -2.53746,3.525771 -0.95147,1.008618 -2.39983,2.238272 -3.21858,2.732564 -0.81873,0.494292 -2.30481,1.148808 -3.30242,1.454478 -1.34596,0.412422 -2.47198,0.549667 -4.36563,0.532109 -1.40348,-0.01302 -3.13904,-0.184804 -3.8568,-0.381759 z m 7.55504,-5.619504 c 0.63707,-0.287838 1.66291,-0.895194 2.27968,-1.349677 0.61677,-0.454485 1.5353,-1.451671 2.04118,-2.215973 0.50588,-0.764299 1.1144,-2.153007 1.35226,-3.086018 0.308,-1.208246 0.38076,-2.178912 0.25286,-3.373289 -0.10988,-1.026059 -0.48136,-2.280803 -0.95708,-3.232843 -0.42764,-0.855763 -1.37448,-2.114314 -2.10407,-2.796778 -0.72961,-0.682466 -2.00737,-1.556586 -2.83948,-1.942491 -1.23619,-0.57331 -1.90005,-0.702162 -3.62955,-0.704477 -1.82462,-0.0024 -2.35951,0.111577 -3.87649,0.826317 -0.9679,0.456031 -2.25957,1.328912 -2.87039,1.939735 -0.61084,0.610822 -1.48579,1.902502 -1.94437,2.870398 -0.75377,1.590955 -0.83365,2.000986 -0.83248,4.273352 0,2.241338 0.0817,2.666555 0.74414,3.926472 0.40859,0.777113 1.2071,1.916562 1.7745,2.532107 0.5674,0.615548 1.65391,1.457862 2.41446,1.871808 0.76054,0.413946 1.74739,0.847482 2.19297,0.963412 0.44559,0.115929 1.71768,0.168145 2.82686,0.116035 1.26217,-0.0593 2.45007,-0.290552 3.175,-0.61809 z"
       id="path1" />
  </g>
</svg>
